<svg xmlns="http://www.w3.org/2000/svg" viewBox="8 23 929 242.67999267578125" data-asc="0.83" width="929" height="242.67999267578125"><defs/><g fill="#161616"><g transform="translate(0, 0)"><path d="M8 23L22.50 23L22.50 27L12 27L12 50L8 50L8 23ZM22.50 27L22.50 23L47.50 23L47.50 27L22.50 27ZM47.50 27L47.50 23L72.50 23L72.50 27L47.50 27ZM72.50 27L72.50 23L97.50 23L97.50 27L72.50 27ZM97.50 27L97.50 23L122.50 23L122.50 27L97.50 27ZM122.50 27L122.50 23L147.50 23L147.50 27L122.50 27ZM147.50 27L147.50 23L172.50 23L172.50 27L147.50 27ZM172.50 27L172.50 23L197.50 23L197.50 27L172.50 27ZM197.50 27L197.50 23L222.50 23L222.50 27L197.50 27ZM222.50 27L222.50 23L247.50 23L247.50 27L222.50 27ZM247.50 27L247.50 23L272.50 23L272.50 27L247.50 27ZM272.50 27L272.50 23L297.50 23L297.50 27L272.50 27ZM297.50 27L297.50 23L322.50 23L322.50 27L297.50 27ZM322.50 27L322.50 23L347.50 23L347.50 27L322.50 27ZM347.50 27L347.50 23L372.50 23L372.50 27L347.50 27ZM372.50 27L372.50 23L397.50 23L397.50 27L372.50 27ZM397.50 27L397.50 23L422.50 23L422.50 27L397.50 27ZM422.50 27L422.50 23L447.50 23L447.50 27L422.50 27ZM447.50 27L447.50 23L472.50 23L472.50 27L447.50 27ZM472.50 27L472.50 23L497.50 23L497.50 27L472.50 27ZM497.50 27L497.50 23L522.50 23L522.50 27L497.50 27ZM522.50 27L522.50 23L547.50 23L547.50 27L522.50 27ZM547.50 27L547.50 23L572.50 23L572.50 27L547.50 27ZM572.50 27L572.50 23L597.50 23L597.50 27L572.50 27ZM597.50 27L597.50 23L622.50 23L622.50 27L597.50 27ZM622.50 27L622.50 23L647.50 23L647.50 27L622.50 27ZM647.50 27L647.50 23L672.50 23L672.50 27L647.50 27ZM672.50 27L672.50 23L697.50 23L697.50 27L672.50 27ZM697.50 27L697.50 23L722.50 23L722.50 27L697.50 27ZM722.50 27L722.50 23L747.50 23L747.50 27L722.50 27ZM747.50 27L747.50 23L772.50 23L772.50 27L747.50 27ZM772.50 27L772.50 23L797.50 23L797.50 27L772.50 27ZM797.50 27L797.50 23L822.50 23L822.50 27L797.50 27ZM822.50 27L822.50 23L847.50 23L847.50 27L822.50 27ZM847.50 27L847.50 23L872.50 23L872.50 27L847.50 27ZM872.50 27L872.50 23L897.50 23L897.50 27L872.50 27ZM897.50 27L897.50 23L922.50 23L922.50 27L897.50 27ZM922.50 23L937 23L937 50L933 50L933 27L922.50 27L922.50 23Z"/></g><g transform="translate(0, 39.78)"><path d="M12 50L8 50L8 0L12 0L12 50ZM97.90 44.40L122.10 44.40L122.10 49.75L97.90 49.75L97.90 44.40ZM122.90 44.40L147.10 44.40L147.10 49.75L122.90 49.75L122.90 44.40ZM147.90 44.40L172.10 44.40L172.10 49.75L147.90 49.75L147.90 44.40ZM172.90 44.40L197.10 44.40L197.10 49.75L172.90 49.75L172.90 44.40ZM247.90 44.40L272.10 44.40L272.10 49.75L247.90 49.75L247.90 44.40ZM347.90 44.40L372.10 44.40L372.10 49.75L347.90 49.75L347.90 44.40ZM422.90 44.40L447.10 44.40L447.10 49.75L422.90 49.75L422.90 44.40ZM447.90 44.40L472.10 44.40L472.10 49.75L447.90 49.75L447.90 44.40ZM472.90 44.40L497.10 44.40L497.10 49.75L472.90 49.75L472.90 44.40ZM497.90 44.40L522.10 44.40L522.10 49.75L497.90 49.75L497.90 44.40ZM572.90 44.40L597.10 44.40L597.10 49.75L572.90 49.75L572.90 44.40ZM597.90 44.40L622.10 44.40L622.10 49.75L597.90 49.75L597.90 44.40ZM622.90 44.40L647.10 44.40L647.10 49.75L622.90 49.75L622.90 44.40ZM647.90 44.40L672.10 44.40L672.10 49.75L647.90 49.75L647.90 44.40ZM722.90 44.40L747.10 44.40L747.10 49.75L722.90 49.75L722.90 44.40ZM822.90 44.40L847.10 44.40L847.10 49.75L822.90 49.75L822.90 44.40ZM937 50L933 50L933 0L937 0L937 50Z"/></g><g transform="translate(0, 79.56)"><path d="M12 50L8 50L8 0L12 0L12 50ZM81.25 49.75L74.85 49.75L88.85 6.55L95.15 6.55L81.25 49.75ZM122.90 44.40L147.10 44.40L147.10 49.75L122.90 49.75L122.90 44.40ZM147.90 44.40L172.10 44.40L172.10 49.75L147.90 49.75L147.90 44.40ZM172.90 44.40L197.10 44.40L197.10 49.75L172.90 49.75L172.90 44.40ZM212.20 28.20Q212.20 22 209.38 17.30Q206.55 12.60 201.75 9.80L204.60 6Q211.40 9.75 214.65 15.52Q217.90 21.30 217.90 28.20Q217.90 35.05 214.75 40.65Q211.60 46.25 204.80 50L201.95 46.20Q206.75 43.40 209.47 38.88Q212.20 34.35 212.20 28.20ZM232.90 28.20Q232.90 34.35 235.63 38.88Q238.35 43.40 243.15 46.20L240.30 50Q233.50 46.25 230.35 40.65Q227.20 35.05 227.20 28.20Q227.20 21.30 230.45 15.52Q233.70 9.75 240.50 6L243.35 9.80Q238.55 12.60 235.72 17.30Q232.90 22 232.90 28.20ZM274.95 6.55L281.25 6.55L295.25 49.75L288.90 49.75L274.95 6.55ZM297.90 44.40L322.10 44.40L322.10 49.75L297.90 49.75L297.90 44.40ZM331.25 49.75L324.85 49.75L338.85 6.55L345.15 6.55L331.25 49.75ZM387.20 28.20Q387.20 22 384.38 17.30Q381.55 12.60 376.75 9.80L379.60 6Q386.40 9.75 389.65 15.52Q392.90 21.30 392.90 28.20Q392.90 35.05 389.75 40.65Q386.60 46.25 379.80 50L376.95 46.20Q381.75 43.40 384.48 38.88Q387.20 34.35 387.20 28.20ZM407.90 28.20Q407.90 34.35 410.63 38.88Q413.35 43.40 418.15 46.20L415.30 50Q408.50 46.25 405.35 40.65Q402.20 35.05 402.20 28.20Q402.20 21.30 405.45 15.52Q408.70 9.75 415.50 6L418.35 9.80Q413.55 12.60 410.73 17.30Q407.90 22 407.90 28.20ZM422.90 44.40L447.10 44.40L447.10 49.75L422.90 49.75L422.90 44.40ZM497.90 44.40L522.10 44.40L522.10 49.75L497.90 49.75L497.90 44.40ZM537.20 28.20Q537.20 22 534.38 17.30Q531.55 12.60 526.75 9.80L529.60 6Q536.40 9.75 539.65 15.52Q542.90 21.30 542.90 28.20Q542.90 35.05 539.75 40.65Q536.60 46.25 529.80 50L526.95 46.20Q531.75 43.40 534.48 38.88Q537.20 34.35 537.20 28.20ZM557.90 28.20Q557.90 34.35 560.63 38.88Q563.35 43.40 568.15 46.20L565.30 50Q558.50 46.25 555.35 40.65Q552.20 35.05 552.20 28.20Q552.20 21.30 555.45 15.52Q558.70 9.75 565.50 6L568.35 9.80Q563.55 12.60 560.73 17.30Q557.90 22 557.90 28.20ZM597.90 44.40L622.10 44.40L622.10 49.75L597.90 49.75L597.90 44.40ZM622.90 44.40L647.10 44.40L647.10 49.75L622.90 49.75L622.90 44.40ZM647.90 44.40L672.10 44.40L672.10 49.75L647.90 49.75L647.90 44.40ZM687.20 28.20Q687.20 22 684.38 17.30Q681.55 12.60 676.75 9.80L679.60 6Q686.40 9.75 689.65 15.52Q692.90 21.30 692.90 28.20Q692.90 35.05 689.75 40.65Q686.60 46.25 679.80 50L676.95 46.20Q681.75 43.40 684.48 38.88Q687.20 34.35 687.20 28.20ZM707.90 28.20Q707.90 34.35 710.63 38.88Q713.35 43.40 718.15 46.20L715.30 50Q708.50 46.25 705.35 40.65Q702.20 35.05 702.20 28.20Q702.20 21.30 705.45 15.52Q708.70 9.75 715.50 6L718.35 9.80Q713.55 12.60 710.73 17.30Q707.90 22 707.90 28.20ZM762.20 28.20Q762.20 22 759.38 17.30Q756.55 12.60 751.75 9.80L754.60 6Q761.40 9.75 764.65 15.52Q767.90 21.30 767.90 28.20Q767.90 35.05 764.75 40.65Q761.60 46.25 754.80 50L751.95 46.20Q756.75 43.40 759.48 38.88Q762.20 34.35 762.20 28.20ZM807.90 28.20Q807.90 34.35 810.63 38.88Q813.35 43.40 818.15 46.20L815.30 50Q808.50 46.25 805.35 40.65Q802.20 35.05 802.20 28.20Q802.20 21.30 805.45 15.52Q808.70 9.75 815.50 6L818.35 9.80Q813.55 12.60 810.73 17.30Q807.90 22 807.90 28.20ZM862.20 28.20Q862.20 22 859.38 17.30Q856.55 12.60 851.75 9.80L854.60 6Q861.40 9.75 864.65 15.52Q867.90 21.30 867.90 28.20Q867.90 35.05 864.75 40.65Q861.60 46.25 854.80 50L851.95 46.20Q856.75 43.40 859.48 38.88Q862.20 34.35 862.20 28.20ZM937 50L933 50L933 0L937 0L937 50Z"/></g><g transform="translate(0, 119.34)"><path d="M12 50L8 50L8 0L12 0L12 50ZM74.95 6.55L81.25 6.55L95.25 49.75L88.90 49.75L74.95 6.55ZM97.90 44.40L122.10 44.40L122.10 49.75L97.90 49.75L97.90 44.40ZM122.90 44.40L147.10 44.40L147.10 49.75L122.90 49.75L122.90 44.40ZM147.90 44.40L172.10 44.40L172.10 49.75L147.90 49.75L147.90 44.40ZM199.95 6.55L206.25 6.55L220.25 49.75L213.90 49.75L199.95 6.55ZM231.95 6.55L238.15 6.55L238.15 49.75L231.95 49.75L231.95 6.55ZM297.90 44.40L322.10 44.40L322.10 49.75L297.90 49.75L297.90 44.40ZM381.95 6.55L388.15 6.55L388.15 49.75L381.95 49.75L381.95 6.55ZM422.90 44.40L447.10 44.40L447.10 49.75L422.90 49.75L422.90 44.40ZM466.85 49.75L452.95 49.75L452.95 44.95L460.95 44.95L460.95 11.35L452.95 11.35L452.95 6.55L466.85 6.55L466.85 49.75ZM478.15 6.55L492 6.55L492 11.35L484 11.35L484 44.95L492 44.95L492 49.75L478.15 49.75L478.15 6.55ZM497.90 44.40L522.10 44.40L522.10 49.75L497.90 49.75L497.90 44.40ZM556.95 6.55L563.15 6.55L563.15 49.75L556.95 49.75L556.95 6.55ZM597.90 44.40L622.10 44.40L622.10 49.75L597.90 49.75L597.90 44.40ZM622.90 44.40L647.10 44.40L647.10 49.75L622.90 49.75L622.90 44.40ZM656.25 49.75L649.85 49.75L663.85 6.55L670.15 6.55L656.25 49.75ZM706.95 6.55L713.15 6.55L713.15 49.75L706.95 49.75L706.95 6.55ZM749.95 6.55L756.25 6.55L770.25 49.75L763.90 49.75L749.95 6.55ZM772.90 44.40L797.10 44.40L797.10 49.75L772.90 49.75L772.90 44.40ZM806.25 49.75L799.85 49.75L813.85 6.55L820.15 6.55L806.25 49.75ZM856.95 6.55L863.15 6.55L863.15 49.75L856.95 49.75L856.95 6.55ZM937 50L933 50L933 0L937 0L937 50Z"/></g><g transform="translate(0, 159.12)"><path d="M12 50L8 50L8 0L12 0L12 50ZM82.90 28.20Q82.90 34.35 85.63 38.88Q88.35 43.40 93.15 46.20L90.30 50Q83.50 46.25 80.35 40.65Q77.20 35.05 77.20 28.20Q77.20 21.30 80.45 15.52Q83.70 9.75 90.50 6L93.35 9.80Q88.55 12.60 85.72 17.30Q82.90 22 82.90 28.20ZM97.90 44.40L122.10 44.40L122.10 49.75L97.90 49.75L97.90 44.40ZM122.90 44.40L147.10 44.40L147.10 49.75L122.90 49.75L122.90 44.40ZM147.90 44.40L172.10 44.40L172.10 49.75L147.90 49.75L147.90 44.40ZM172.90 44.40L197.10 44.40L197.10 49.75L172.90 49.75L172.90 44.40ZM206.25 49.75L199.85 49.75L213.85 6.55L220.15 6.55L206.25 49.75ZM232.90 28.20Q232.90 34.35 235.63 38.88Q238.35 43.40 243.15 46.20L240.30 50Q233.50 46.25 230.35 40.65Q227.20 35.05 227.20 28.20Q227.20 21.30 230.45 15.52Q233.70 9.75 240.50 6L243.35 9.80Q238.55 12.60 235.72 17.30Q232.90 22 232.90 28.20ZM247.90 44.40L272.10 44.40L272.10 49.75L247.90 49.75L247.90 44.40ZM281.25 49.75L274.85 49.75L288.85 6.55L295.15 6.55L281.25 49.75ZM324.95 6.55L331.25 6.55L345.25 49.75L338.90 49.75L324.95 6.55ZM347.90 44.40L372.10 44.40L372.10 49.75L347.90 49.75L347.90 44.40ZM387.20 28.20Q387.20 22 384.38 17.30Q381.55 12.60 376.75 9.80L379.60 6Q386.40 9.75 389.65 15.52Q392.90 21.30 392.90 28.20Q392.90 35.05 389.75 40.65Q386.60 46.25 379.80 50L376.95 46.20Q381.75 43.40 384.48 38.88Q387.20 34.35 387.20 28.20ZM407.90 28.20Q407.90 34.35 410.63 38.88Q413.35 43.40 418.15 46.20L415.30 50Q408.50 46.25 405.35 40.65Q402.20 35.05 402.20 28.20Q402.20 21.30 405.45 15.52Q408.70 9.75 415.50 6L418.35 9.80Q413.55 12.60 410.73 17.30Q407.90 22 407.90 28.20ZM422.90 44.40L447.10 44.40L447.10 49.75L422.90 49.75L422.90 44.40ZM447.90 44.40L472.10 44.40L472.10 49.75L447.90 49.75L447.90 44.40ZM472.90 44.40L497.10 44.40L497.10 49.75L472.90 49.75L472.90 44.40ZM497.90 44.40L522.10 44.40L522.10 49.75L497.90 49.75L497.90 44.40ZM537.20 28.20Q537.20 22 534.38 17.30Q531.55 12.60 526.75 9.80L529.60 6Q536.40 9.75 539.65 15.52Q542.90 21.30 542.90 28.20Q542.90 35.05 539.75 40.65Q536.60 46.25 529.80 50L526.95 46.20Q531.75 43.40 534.48 38.88Q537.20 34.35 537.20 28.20ZM557.90 28.20Q557.90 34.35 560.63 38.88Q563.35 43.40 568.15 46.20L565.30 50Q558.50 46.25 555.35 40.65Q552.20 35.05 552.20 28.20Q552.20 21.30 555.45 15.52Q558.70 9.75 565.50 6L568.35 9.80Q563.55 12.60 560.73 17.30Q557.90 22 557.90 28.20ZM572.90 44.40L597.10 44.40L597.10 49.75L572.90 49.75L572.90 44.40ZM612.20 28.20Q612.20 22 609.38 17.30Q606.55 12.60 601.75 9.80L604.60 6Q611.40 9.75 614.65 15.52Q617.90 21.30 617.90 28.20Q617.90 35.05 614.75 40.65Q611.60 46.25 604.80 50L601.95 46.20Q606.75 43.40 609.48 38.88Q612.20 34.35 612.20 28.20ZM707.90 28.20Q707.90 34.35 710.63 38.88Q713.35 43.40 718.15 46.20L715.30 50Q708.50 46.25 705.35 40.65Q702.20 35.05 702.20 28.20Q702.20 21.30 705.45 15.52Q708.70 9.75 715.50 6L718.35 9.80Q713.55 12.60 710.73 17.30Q707.90 22 707.90 28.20ZM722.90 44.40L747.10 44.40L747.10 49.75L722.90 49.75L722.90 44.40ZM747.90 44.40L772.10 44.40L772.10 49.75L747.90 49.75L747.90 44.40ZM772.90 44.40L797.10 44.40L797.10 49.75L772.90 49.75L772.90 44.40ZM797.90 44.40L822.10 44.40L822.10 49.75L797.90 49.75L797.90 44.40ZM822.90 44.40L847.10 44.40L847.10 49.75L822.90 49.75L822.90 44.40ZM862.20 28.20Q862.20 22 859.38 17.30Q856.55 12.60 851.75 9.80L854.60 6Q861.40 9.75 864.65 15.52Q867.90 21.30 867.90 28.20Q867.90 35.05 864.75 40.65Q861.60 46.25 854.80 50L851.95 46.20Q856.75 43.40 859.48 38.88Q862.20 34.35 862.20 28.20ZM937 50L933 50L933 0L937 0L937 50Z"/></g><g transform="translate(0, 198.9)"><path d="M12 50L8 50L8 0L12 0L12 50ZM937 50L933 50L933 0L937 0L937 50Z"/></g><g transform="translate(0, 238.68)"><path d="M8 0L12 0L12 23L22.50 23L22.50 27L8 27L8 0ZM22.50 27L22.50 23L47.50 23L47.50 27L22.50 27ZM47.50 27L47.50 23L72.50 23L72.50 27L47.50 27ZM72.50 27L72.50 23L97.50 23L97.50 27L72.50 27ZM97.50 27L97.50 23L122.50 23L122.50 27L97.50 27ZM122.50 27L122.50 23L147.50 23L147.50 27L122.50 27ZM147.50 27L147.50 23L172.50 23L172.50 27L147.50 27ZM172.50 27L172.50 23L197.50 23L197.50 27L172.50 27ZM197.50 27L197.50 23L222.50 23L222.50 27L197.50 27ZM222.50 27L222.50 23L247.50 23L247.50 27L222.50 27ZM247.50 27L247.50 23L272.50 23L272.50 27L247.50 27ZM272.50 27L272.50 23L297.50 23L297.50 27L272.50 27ZM297.50 27L297.50 23L322.50 23L322.50 27L297.50 27ZM322.50 27L322.50 23L347.50 23L347.50 27L322.50 27ZM347.50 27L347.50 23L372.50 23L372.50 27L347.50 27ZM372.50 27L372.50 23L397.50 23L397.50 27L372.50 27ZM397.50 27L397.50 23L422.50 23L422.50 27L397.50 27ZM422.50 27L422.50 23L447.50 23L447.50 27L422.50 27ZM447.50 27L447.50 23L472.50 23L472.50 27L447.50 27ZM472.50 27L472.50 23L497.50 23L497.50 27L472.50 27ZM497.50 27L497.50 23L522.50 23L522.50 27L497.50 27ZM522.50 27L522.50 23L547.50 23L547.50 27L522.50 27ZM547.50 27L547.50 23L572.50 23L572.50 27L547.50 27ZM572.50 27L572.50 23L597.50 23L597.50 27L572.50 27ZM597.50 27L597.50 23L622.50 23L622.50 27L597.50 27ZM622.50 27L622.50 23L647.50 23L647.50 27L622.50 27ZM647.50 27L647.50 23L672.50 23L672.50 27L647.50 27ZM672.50 27L672.50 23L697.50 23L697.50 27L672.50 27ZM697.50 27L697.50 23L722.50 23L722.50 27L697.50 27ZM722.50 27L722.50 23L747.50 23L747.50 27L722.50 27ZM747.50 27L747.50 23L772.50 23L772.50 27L747.50 27ZM772.50 27L772.50 23L797.50 23L797.50 27L772.50 27ZM797.50 27L797.50 23L822.50 23L822.50 27L797.50 27ZM822.50 27L822.50 23L847.50 23L847.50 27L822.50 27ZM847.50 27L847.50 23L872.50 23L872.50 27L847.50 27ZM872.50 27L872.50 23L897.50 23L897.50 27L872.50 27ZM897.50 27L897.50 23L922.50 23L922.50 27L897.50 27ZM922.50 23L933 23L933 0L937 0L937 27L922.50 27L922.50 23Z"/></g></g></svg>