<svg xmlns="http://www.w3.org/2000/svg" viewBox="-0.15000000596046448 6 793.050048828125 123.55999755859375" data-asc="0.83" width="793.050048828125" height="123.55999755859375"><defs/><g fill="#e0dfe6"><g transform="translate(0, 0)"><path d="M6.25 49.75L-0.15 49.75L13.85 6.55L20.15 6.55L6.25 49.75ZM47.90 44.40L72.10 44.40L72.10 49.75L47.90 49.75L47.90 44.40ZM72.90 44.40L97.10 44.40L97.10 49.75L72.90 49.75L72.90 44.40ZM97.90 44.40L122.10 44.40L122.10 49.75L97.90 49.75L97.90 44.40ZM137.20 28.20Q137.20 22 134.38 17.30Q131.55 12.60 126.75 9.80L129.60 6Q136.40 9.75 139.65 15.52Q142.90 21.30 142.90 28.20Q142.90 35.05 139.75 40.65Q136.60 46.25 129.80 50L126.95 46.20Q131.75 43.40 134.47 38.88Q137.20 34.35 137.20 28.20ZM157.90 28.20Q157.90 34.35 160.63 38.88Q163.35 43.40 168.15 46.20L165.30 50Q158.50 46.25 155.35 40.65Q152.20 35.05 152.20 28.20Q152.20 21.30 155.45 15.52Q158.70 9.75 165.50 6L168.35 9.80Q163.55 12.60 160.72 17.30Q157.90 22 157.90 28.20ZM212.20 28.20Q212.20 22 209.38 17.30Q206.55 12.60 201.75 9.80L204.60 6Q211.40 9.75 214.65 15.52Q217.90 21.30 217.90 28.20Q217.90 35.05 214.75 40.65Q211.60 46.25 204.80 50L201.95 46.20Q206.75 43.40 209.47 38.88Q212.20 34.35 212.20 28.20ZM222.90 44.40L247.10 44.40L247.10 49.75L222.90 49.75L222.90 44.40ZM257.90 28.20Q257.90 34.35 260.63 38.88Q263.35 43.40 268.15 46.20L265.30 50Q258.50 46.25 255.35 40.65Q252.20 35.05 252.20 28.20Q252.20 21.30 255.45 15.52Q258.70 9.75 265.50 6L268.35 9.80Q263.55 12.60 260.73 17.30Q257.90 22 257.90 28.20ZM312.20 28.20Q312.20 22 309.38 17.30Q306.55 12.60 301.75 9.80L304.60 6Q311.40 9.75 314.65 15.52Q317.90 21.30 317.90 28.20Q317.90 35.05 314.75 40.65Q311.60 46.25 304.80 50L301.95 46.20Q306.75 43.40 309.48 38.88Q312.20 34.35 312.20 28.20ZM332.90 28.20Q332.90 34.35 335.63 38.88Q338.35 43.40 343.15 46.20L340.30 50Q333.50 46.25 330.35 40.65Q327.20 35.05 327.20 28.20Q327.20 21.30 330.45 15.52Q333.70 9.75 340.50 6L343.35 9.80Q338.55 12.60 335.73 17.30Q332.90 22 332.90 28.20ZM347.90 44.40L372.10 44.40L372.10 49.75L347.90 49.75L347.90 44.40ZM422.90 44.40L447.10 44.40L447.10 49.75L422.90 49.75L422.90 44.40ZM462.20 28.20Q462.20 22 459.38 17.30Q456.55 12.60 451.75 9.80L454.60 6Q461.40 9.75 464.65 15.52Q467.90 21.30 467.90 28.20Q467.90 35.05 464.75 40.65Q461.60 46.25 454.80 50L451.95 46.20Q456.75 43.40 459.48 38.88Q462.20 34.35 462.20 28.20ZM482.90 28.20Q482.90 34.35 485.63 38.88Q488.35 43.40 493.15 46.20L490.30 50Q483.50 46.25 480.35 40.65Q477.20 35.05 477.20 28.20Q477.20 21.30 480.45 15.52Q483.70 9.75 490.50 6L493.35 9.80Q488.55 12.60 485.73 17.30Q482.90 22 482.90 28.20ZM522.90 44.40L547.10 44.40L547.10 49.75L522.90 49.75L522.90 44.40ZM547.90 44.40L572.10 44.40L572.10 49.75L547.90 49.75L547.90 44.40ZM572.90 44.40L597.10 44.40L597.10 49.75L572.90 49.75L572.90 44.40ZM612.20 28.20Q612.20 22 609.38 17.30Q606.55 12.60 601.75 9.80L604.60 6Q611.40 9.75 614.65 15.52Q617.90 21.30 617.90 28.20Q617.90 35.05 614.75 40.65Q611.60 46.25 604.80 50L601.95 46.20Q606.75 43.40 609.48 38.88Q612.20 34.35 612.20 28.20ZM632.90 28.20Q632.90 34.35 635.63 38.88Q638.35 43.40 643.15 46.20L640.30 50Q633.50 46.25 630.35 40.65Q627.20 35.05 627.20 28.20Q627.20 21.30 630.45 15.52Q633.70 9.75 640.50 6L643.35 9.80Q638.55 12.60 635.73 17.30Q632.90 22 632.90 28.20ZM687.20 28.20Q687.20 22 684.38 17.30Q681.55 12.60 676.75 9.80L679.60 6Q686.40 9.75 689.65 15.52Q692.90 21.30 692.90 28.20Q692.90 35.05 689.75 40.65Q686.60 46.25 679.80 50L676.95 46.20Q681.75 43.40 684.48 38.88Q687.20 34.35 687.20 28.20ZM732.90 28.20Q732.90 34.35 735.63 38.88Q738.35 43.40 743.15 46.20L740.30 50Q733.50 46.25 730.35 40.65Q727.20 35.05 727.20 28.20Q727.20 21.30 730.45 15.52Q733.70 9.75 740.50 6L743.35 9.80Q738.55 12.60 735.73 17.30Q732.90 22 732.90 28.20ZM787.20 28.20Q787.20 22 784.38 17.30Q781.55 12.60 776.75 9.80L779.60 6Q786.40 9.75 789.65 15.52Q792.90 21.30 792.90 28.20Q792.90 35.05 789.75 40.65Q786.60 46.25 779.80 50L776.95 46.20Q781.75 43.40 784.48 38.88Q787.20 34.35 787.20 28.20Z"/></g><g transform="translate(0, 39.78)"><path d="M-0.05 6.55L6.25 6.55L20.25 49.75L13.90 49.75L-0.05 6.55ZM22.90 44.40L47.10 44.40L47.10 49.75L22.90 49.75L22.90 44.40ZM47.90 44.40L72.10 44.40L72.10 49.75L47.90 49.75L47.90 44.40ZM72.90 44.40L97.10 44.40L97.10 49.75L72.90 49.75L72.90 44.40ZM124.95 6.55L131.25 6.55L145.25 49.75L138.90 49.75L124.95 6.55ZM156.95 6.55L163.15 6.55L163.15 49.75L156.95 49.75L156.95 6.55ZM222.90 44.40L247.10 44.40L247.10 49.75L222.90 49.75L222.90 44.40ZM306.95 6.55L313.15 6.55L313.15 49.75L306.95 49.75L306.95 6.55ZM347.90 44.40L372.10 44.40L372.10 49.75L347.90 49.75L347.90 44.40ZM387.20 28.20Q387.20 22 384.38 17.30Q381.55 12.60 376.75 9.80L379.60 6Q386.40 9.75 389.65 15.52Q392.90 21.30 392.90 28.20Q392.90 35.05 389.75 40.65Q386.60 46.25 379.80 50L376.95 46.20Q381.75 43.40 384.48 38.88Q387.20 34.35 387.20 28.20ZM407.90 28.20Q407.90 34.35 410.63 38.88Q413.35 43.40 418.15 46.20L415.30 50Q408.50 46.25 405.35 40.65Q402.20 35.05 402.20 28.20Q402.20 21.30 405.45 15.52Q408.70 9.75 415.50 6L418.35 9.80Q413.55 12.60 410.73 17.30Q407.90 22 407.90 28.20ZM422.90 44.40L447.10 44.40L447.10 49.75L422.90 49.75L422.90 44.40ZM481.95 6.55L488.15 6.55L488.15 49.75L481.95 49.75L481.95 6.55ZM522.90 44.40L547.10 44.40L547.10 49.75L522.90 49.75L522.90 44.40ZM547.90 44.40L572.10 44.40L572.10 49.75L547.90 49.75L547.90 44.40ZM587.20 28.20Q587.20 22 584.38 17.30Q581.55 12.60 576.75 9.80L579.60 6Q586.40 9.75 589.65 15.52Q592.90 21.30 592.90 28.20Q592.90 35.05 589.75 40.65Q586.60 46.25 579.80 50L576.95 46.20Q581.75 43.40 584.48 38.88Q587.20 34.35 587.20 28.20ZM631.95 6.55L638.15 6.55L638.15 49.75L631.95 49.75L631.95 6.55ZM682.90 28.20Q682.90 34.35 685.63 38.88Q688.35 43.40 693.15 46.20L690.30 50Q683.50 46.25 680.35 40.65Q677.20 35.05 677.20 28.20Q677.20 21.30 680.45 15.52Q683.70 9.75 690.50 6L693.35 9.80Q688.55 12.60 685.73 17.30Q682.90 22 682.90 28.20ZM697.90 44.40L722.10 44.40L722.10 49.75L697.90 49.75L697.90 44.40ZM737.20 28.20Q737.20 22 734.38 17.30Q731.55 12.60 726.75 9.80L729.60 6Q736.40 9.75 739.65 15.52Q742.90 21.30 742.90 28.20Q742.90 35.05 739.75 40.65Q736.60 46.25 729.80 50L726.95 46.20Q731.75 43.40 734.48 38.88Q737.20 34.35 737.20 28.20ZM781.95 6.55L788.15 6.55L788.15 49.75L781.95 49.75L781.95 6.55Z"/></g><g transform="translate(0, 79.56)"><path d="M7.90 28.20Q7.90 34.35 10.63 38.88Q13.35 43.40 18.15 46.20L15.30 50Q8.50 46.25 5.35 40.65Q2.20 35.05 2.20 28.20Q2.20 21.30 5.45 15.52Q8.70 9.75 15.50 6L18.35 9.80Q13.55 12.60 10.73 17.30Q7.90 22 7.90 28.20ZM22.90 44.40L47.10 44.40L47.10 49.75L22.90 49.75L22.90 44.40ZM47.90 44.40L72.10 44.40L72.10 49.75L47.90 49.75L47.90 44.40ZM72.90 44.40L97.10 44.40L97.10 49.75L72.90 49.75L72.90 44.40ZM97.90 44.40L122.10 44.40L122.10 49.75L97.90 49.75L97.90 44.40ZM131.25 49.75L124.85 49.75L138.85 6.55L145.15 6.55L131.25 49.75ZM157.90 28.20Q157.90 34.35 160.63 38.88Q163.35 43.40 168.15 46.20L165.30 50Q158.50 46.25 155.35 40.65Q152.20 35.05 152.20 28.20Q152.20 21.30 155.45 15.52Q158.70 9.75 165.50 6L168.35 9.80Q163.55 12.60 160.72 17.30Q157.90 22 157.90 28.20ZM172.90 44.40L197.10 44.40L197.10 49.75L172.90 49.75L172.90 44.40ZM212.20 28.20Q212.20 22 209.38 17.30Q206.55 12.60 201.75 9.80L204.60 6Q211.40 9.75 214.65 15.52Q217.90 21.30 217.90 28.20Q217.90 35.05 214.75 40.65Q211.60 46.25 204.80 50L201.95 46.20Q206.75 43.40 209.47 38.88Q212.20 34.35 212.20 28.20ZM257.90 28.20Q257.90 34.35 260.63 38.88Q263.35 43.40 268.15 46.20L265.30 50Q258.50 46.25 255.35 40.65Q252.20 35.05 252.20 28.20Q252.20 21.30 255.45 15.52Q258.70 9.75 265.50 6L268.35 9.80Q263.55 12.60 260.73 17.30Q257.90 22 257.90 28.20ZM272.90 44.40L297.10 44.40L297.10 49.75L272.90 49.75L272.90 44.40ZM312.20 28.20Q312.20 22 309.38 17.30Q306.55 12.60 301.75 9.80L304.60 6Q311.40 9.75 314.65 15.52Q317.90 21.30 317.90 28.20Q317.90 35.05 314.75 40.65Q311.60 46.25 304.80 50L301.95 46.20Q306.75 43.40 309.48 38.88Q312.20 34.35 312.20 28.20ZM332.90 28.20Q332.90 34.35 335.63 38.88Q338.35 43.40 343.15 46.20L340.30 50Q333.50 46.25 330.35 40.65Q327.20 35.05 327.20 28.20Q327.20 21.30 330.45 15.52Q333.70 9.75 340.50 6L343.35 9.80Q338.55 12.60 335.73 17.30Q332.90 22 332.90 28.20ZM347.90 44.40L372.10 44.40L372.10 49.75L347.90 49.75L347.90 44.40ZM372.90 44.40L397.10 44.40L397.10 49.75L372.90 49.75L372.90 44.40ZM397.90 44.40L422.10 44.40L422.10 49.75L397.90 49.75L397.90 44.40ZM422.90 44.40L447.10 44.40L447.10 49.75L422.90 49.75L422.90 44.40ZM462.20 28.20Q462.20 22 459.38 17.30Q456.55 12.60 451.75 9.80L454.60 6Q461.40 9.75 464.65 15.52Q467.90 21.30 467.90 28.20Q467.90 35.05 464.75 40.65Q461.60 46.25 454.80 50L451.95 46.20Q456.75 43.40 459.48 38.88Q462.20 34.35 462.20 28.20ZM482.90 28.20Q482.90 34.35 485.63 38.88Q488.35 43.40 493.15 46.20L490.30 50Q483.50 46.25 480.35 40.65Q477.20 35.05 477.20 28.20Q477.20 21.30 480.45 15.52Q483.70 9.75 490.50 6L493.35 9.80Q488.55 12.60 485.73 17.30Q482.90 22 482.90 28.20ZM497.90 44.40L522.10 44.40L522.10 49.75L497.90 49.75L497.90 44.40ZM537.20 28.20Q537.20 22 534.38 17.30Q531.55 12.60 526.75 9.80L529.60 6Q536.40 9.75 539.65 15.52Q542.90 21.30 542.90 28.20Q542.90 35.05 539.75 40.65Q536.60 46.25 529.80 50L526.95 46.20Q531.75 43.40 534.48 38.88Q537.20 34.35 537.20 28.20ZM632.90 28.20Q632.90 34.35 635.63 38.88Q638.35 43.40 643.15 46.20L640.30 50Q633.50 46.25 630.35 40.65Q627.20 35.05 627.20 28.20Q627.20 21.30 630.45 15.52Q633.70 9.75 640.50 6L643.35 9.80Q638.55 12.60 635.73 17.30Q632.90 22 632.90 28.20ZM647.90 44.40L672.10 44.40L672.10 49.75L647.90 49.75L647.90 44.40ZM672.90 44.40L697.10 44.40L697.10 49.75L672.90 49.75L672.90 44.40ZM697.90 44.40L722.10 44.40L722.10 49.75L697.90 49.75L697.90 44.40ZM722.90 44.40L747.10 44.40L747.10 49.75L722.90 49.75L722.90 44.40ZM747.90 44.40L772.10 44.40L772.10 49.75L747.90 49.75L747.90 44.40ZM787.20 28.20Q787.20 22 784.38 17.30Q781.55 12.60 776.75 9.80L779.60 6Q786.40 9.75 789.65 15.52Q792.90 21.30 792.90 28.20Q792.90 35.05 789.75 40.65Q786.60 46.25 779.80 50L776.95 46.20Q781.75 43.40 784.48 38.88Q787.20 34.35 787.20 28.20Z"/></g></g></svg>