<svg xmlns="http://www.w3.org/2000/svg" viewBox="8 23 929 242.67999267578125" data-asc="0.83" width="929" height="242.67999267578125"><defs/><g fill="#939398"><g transform="translate(0, 0)"><path d="M8 23L22.50 23L22.50 27L12 27L12 50L8 50L8 23ZM22.50 27L22.50 23L47.50 23L47.50 27L22.50 27ZM47.50 27L47.50 23L72.50 23L72.50 27L47.50 27ZM72.50 27L72.50 23L97.50 23L97.50 27L72.50 27ZM97.50 27L97.50 23L122.50 23L122.50 27L97.50 27ZM122.50 27L122.50 23L147.50 23L147.50 27L122.50 27ZM147.50 27L147.50 23L172.50 23L172.50 27L147.50 27ZM172.50 27L172.50 23L197.50 23L197.50 27L172.50 27ZM197.50 27L197.50 23L222.50 23L222.50 27L197.50 27ZM222.50 27L222.50 23L247.50 23L247.50 27L222.50 27ZM247.50 27L247.50 23L272.50 23L272.50 27L247.50 27ZM272.50 27L272.50 23L297.50 23L297.50 27L272.50 27ZM297.50 27L297.50 23L322.50 23L322.50 27L297.50 27ZM322.50 27L322.50 23L347.50 23L347.50 27L322.50 27ZM347.50 27L347.50 23L372.50 23L372.50 27L347.50 27ZM372.50 27L372.50 23L397.50 23L397.50 27L372.50 27ZM397.50 27L397.50 23L422.50 23L422.50 27L397.50 27ZM422.50 27L422.50 23L447.50 23L447.50 27L422.50 27ZM447.50 27L447.50 23L472.50 23L472.50 27L447.50 27ZM472.50 27L472.50 23L497.50 23L497.50 27L472.50 27ZM497.50 27L497.50 23L522.50 23L522.50 27L497.50 27ZM522.50 27L522.50 23L547.50 23L547.50 27L522.50 27ZM547.50 27L547.50 23L572.50 23L572.50 27L547.50 27ZM572.50 27L572.50 23L597.50 23L597.50 27L572.50 27ZM597.50 27L597.50 23L622.50 23L622.50 27L597.50 27ZM622.50 27L622.50 23L647.50 23L647.50 27L622.50 27ZM647.50 27L647.50 23L672.50 23L672.50 27L647.50 27ZM672.50 27L672.50 23L697.50 23L697.50 27L672.50 27ZM697.50 27L697.50 23L722.50 23L722.50 27L697.50 27ZM722.50 27L722.50 23L747.50 23L747.50 27L722.50 27ZM747.50 27L747.50 23L772.50 23L772.50 27L747.50 27ZM772.50 27L772.50 23L797.50 23L797.50 27L772.50 27ZM797.50 27L797.50 23L822.50 23L822.50 27L797.50 27ZM822.50 27L822.50 23L847.50 23L847.50 27L822.50 27ZM847.50 27L847.50 23L872.50 23L872.50 27L847.50 27ZM872.50 27L872.50 23L897.50 23L897.50 27L872.50 27ZM897.50 27L897.50 23L922.50 23L922.50 27L897.50 27ZM922.50 23L937 23L937 50L933 50L933 27L922.50 27L922.50 23Z"/></g><g transform="translate(0, 39.78)"><path d="M12 50L8 50L8 0L12 0L12 50ZM937 50L933 50L933 0L937 0L937 50Z"/></g><g transform="translate(0, 79.56)"><path d="M12 50L8 50L8 0L12 0L12 50ZM80.20 49.75L75.95 49.75L89.90 6.55L94.05 6.55L80.20 49.75ZM122.90 46.25L147.10 46.25L147.10 49.75L122.90 49.75L122.90 46.25ZM147.90 46.25L172.10 46.25L172.10 49.75L147.90 49.75L147.90 46.25ZM172.90 46.25L197.10 46.25L197.10 49.75L172.90 49.75L172.90 46.25ZM203.25 46.85Q207.90 43.25 210.38 38.55Q212.85 33.85 212.85 28.30Q212.85 25.50 212.28 23Q211.70 20.50 210.50 18.20Q209.30 15.90 207.47 13.75Q205.65 11.60 203.15 9.45L205.40 6.45Q211.15 10.70 213.97 16.32Q216.80 21.95 216.80 28.20Q216.80 31.30 216.07 34.30Q215.35 37.30 213.93 40.08Q212.50 42.85 210.38 45.33Q208.25 47.80 205.40 49.85L203.20 46.85L203.25 46.85ZM241.70 9.45Q237.05 13.05 234.60 17.75Q232.15 22.45 232.15 28Q232.15 30.80 232.72 33.30Q233.30 35.80 234.47 38.10Q235.65 40.40 237.47 42.55Q239.30 44.70 241.80 46.85L239.55 49.85Q233.80 45.60 230.97 39.98Q228.15 34.35 228.15 28.10Q228.15 21.90 231 16.25Q233.85 10.60 239.55 6.45L241.75 9.45L241.70 9.45ZM278.25 46.85Q282.90 43.25 285.38 38.55Q287.85 33.85 287.85 28.30Q287.85 25.50 287.27 23Q286.70 20.50 285.50 18.20Q284.30 15.90 282.48 13.75Q280.65 11.60 278.15 9.45L280.40 6.45Q286.15 10.70 288.98 16.32Q291.80 21.95 291.80 28.20Q291.80 31.30 291.07 34.30Q290.35 37.30 288.93 40.08Q287.50 42.85 285.38 45.33Q283.25 47.80 280.40 49.85L278.20 46.85L278.25 46.85ZM297.90 46.25L322.10 46.25L322.10 49.75L297.90 49.75L297.90 46.25ZM341.70 9.45Q337.05 13.05 334.60 17.75Q332.15 22.45 332.15 28Q332.15 30.80 332.73 33.30Q333.30 35.80 334.48 38.10Q335.65 40.40 337.48 42.55Q339.30 44.70 341.80 46.85L339.55 49.85Q333.80 45.60 330.98 39.98Q328.15 34.35 328.15 28.10Q328.15 21.90 331 16.25Q333.85 10.60 339.55 6.45L341.75 9.45L341.70 9.45ZM378.25 46.85Q382.90 43.25 385.38 38.55Q387.85 33.85 387.85 28.30Q387.85 25.50 387.27 23Q386.70 20.50 385.50 18.20Q384.30 15.90 382.48 13.75Q380.65 11.60 378.15 9.45L380.40 6.45Q386.15 10.70 388.98 16.32Q391.80 21.95 391.80 28.20Q391.80 31.30 391.07 34.30Q390.35 37.30 388.93 40.08Q387.50 42.85 385.38 45.33Q383.25 47.80 380.40 49.85L378.20 46.85L378.25 46.85ZM416.70 9.45Q412.05 13.05 409.60 17.75Q407.15 22.45 407.15 28Q407.15 30.80 407.73 33.30Q408.30 35.80 409.48 38.10Q410.65 40.40 412.48 42.55Q414.30 44.70 416.80 46.85L414.55 49.85Q408.80 45.60 405.98 39.98Q403.15 34.35 403.15 28.10Q403.15 21.90 406 16.25Q408.85 10.60 414.55 6.45L416.75 9.45L416.70 9.45ZM422.90 46.25L447.10 46.25L447.10 49.75L422.90 49.75L422.90 46.25ZM497.90 46.25L522.10 46.25L522.10 49.75L497.90 49.75L497.90 46.25ZM528.25 46.85Q532.90 43.25 535.38 38.55Q537.85 33.85 537.85 28.30Q537.85 25.50 537.27 23Q536.70 20.50 535.50 18.20Q534.30 15.90 532.48 13.75Q530.65 11.60 528.15 9.45L530.40 6.45Q536.15 10.70 538.98 16.32Q541.80 21.95 541.80 28.20Q541.80 31.30 541.08 34.30Q540.35 37.30 538.92 40.08Q537.50 42.85 535.38 45.33Q533.25 47.80 530.40 49.85L528.20 46.85L528.25 46.85ZM566.70 9.45Q562.05 13.05 559.60 17.75Q557.15 22.45 557.15 28Q557.15 30.80 557.73 33.30Q558.30 35.80 559.48 38.10Q560.65 40.40 562.48 42.55Q564.30 44.70 566.80 46.85L564.55 49.85Q558.80 45.60 555.98 39.98Q553.15 34.35 553.15 28.10Q553.15 21.90 556 16.25Q558.85 10.60 564.55 6.45L566.75 9.45L566.70 9.45ZM597.90 46.25L622.10 46.25L622.10 49.75L597.90 49.75L597.90 46.25ZM622.90 46.25L647.10 46.25L647.10 49.75L622.90 49.75L622.90 46.25ZM647.90 46.25L672.10 46.25L672.10 49.75L647.90 49.75L647.90 46.25ZM678.25 46.85Q682.90 43.25 685.38 38.55Q687.85 33.85 687.85 28.30Q687.85 25.50 687.27 23Q686.70 20.50 685.50 18.20Q684.30 15.90 682.48 13.75Q680.65 11.60 678.15 9.45L680.40 6.45Q686.15 10.70 688.98 16.32Q691.80 21.95 691.80 28.20Q691.80 31.30 691.08 34.30Q690.35 37.30 688.92 40.08Q687.50 42.85 685.38 45.33Q683.25 47.80 680.40 49.85L678.20 46.85L678.25 46.85ZM716.70 9.45Q712.05 13.05 709.60 17.75Q707.15 22.45 707.15 28Q707.15 30.80 707.73 33.30Q708.30 35.80 709.48 38.10Q710.65 40.40 712.48 42.55Q714.30 44.70 716.80 46.85L714.55 49.85Q708.80 45.60 705.98 39.98Q703.15 34.35 703.15 28.10Q703.15 21.90 706 16.25Q708.85 10.60 714.55 6.45L716.75 9.45L716.70 9.45ZM753.25 46.85Q757.90 43.25 760.38 38.55Q762.85 33.85 762.85 28.30Q762.85 25.50 762.27 23Q761.70 20.50 760.50 18.20Q759.30 15.90 757.48 13.75Q755.65 11.60 753.15 9.45L755.40 6.45Q761.15 10.70 763.98 16.32Q766.80 21.95 766.80 28.20Q766.80 31.30 766.08 34.30Q765.35 37.30 763.92 40.08Q762.50 42.85 760.38 45.33Q758.25 47.80 755.40 49.85L753.20 46.85L753.25 46.85ZM816.70 9.45Q812.05 13.05 809.60 17.75Q807.15 22.45 807.15 28Q807.15 30.80 807.73 33.30Q808.30 35.80 809.48 38.10Q810.65 40.40 812.48 42.55Q814.30 44.70 816.80 46.85L814.55 49.85Q808.80 45.60 805.98 39.98Q803.15 34.35 803.15 28.10Q803.15 21.90 806 16.25Q808.85 10.60 814.55 6.45L816.75 9.45L816.70 9.45ZM853.25 46.85Q857.90 43.25 860.38 38.55Q862.85 33.85 862.85 28.30Q862.85 25.50 862.27 23Q861.70 20.50 860.50 18.20Q859.30 15.90 857.48 13.75Q855.65 11.60 853.15 9.45L855.40 6.45Q861.15 10.70 863.98 16.32Q866.80 21.95 866.80 28.20Q866.80 31.30 866.08 34.30Q865.35 37.30 863.92 40.08Q862.50 42.85 860.38 45.33Q858.25 47.80 855.40 49.85L853.20 46.85L853.25 46.85ZM937 50L933 50L933 0L937 0L937 50Z"/></g><g transform="translate(0, 119.34)"><path d="M12 50L8 50L8 0L12 0L12 50ZM76 6.55L80.15 6.55L94 49.75L89.80 49.75L76 6.55ZM97.90 46.25L122.10 46.25L122.10 49.75L97.90 49.75L97.90 46.25ZM122.90 46.25L147.10 46.25L147.10 49.75L122.90 49.75L122.90 46.25ZM147.90 46.25L172.10 46.25L172.10 49.75L147.90 49.75L147.90 46.25ZM201 6.55L205.15 6.55L219 49.75L214.80 49.75L201 6.55ZM233.10 6.55L236.95 6.55L236.95 49.75L233.10 49.75L233.10 6.55ZM297.90 46.25L322.10 46.25L322.10 49.75L297.90 49.75L297.90 46.25ZM383.10 6.55L386.95 6.55L386.95 49.75L383.10 49.75L383.10 6.55ZM422.90 46.25L447.10 46.25L447.10 49.75L422.90 49.75L422.90 46.25ZM453.25 46.85Q457.90 43.25 460.38 38.55Q462.85 33.85 462.85 28.30Q462.85 25.50 462.27 23Q461.70 20.50 460.50 18.20Q459.30 15.90 457.48 13.75Q455.65 11.60 453.15 9.45L455.40 6.45Q461.15 10.70 463.98 16.32Q466.80 21.95 466.80 28.20Q466.80 31.30 466.07 34.30Q465.35 37.30 463.93 40.08Q462.50 42.85 460.38 45.33Q458.25 47.80 455.40 49.85L453.20 46.85L453.25 46.85ZM491.70 9.45Q487.05 13.05 484.60 17.75Q482.15 22.45 482.15 28Q482.15 30.80 482.73 33.30Q483.30 35.80 484.48 38.10Q485.65 40.40 487.48 42.55Q489.30 44.70 491.80 46.85L489.55 49.85Q483.80 45.60 480.98 39.98Q478.15 34.35 478.15 28.10Q478.15 21.90 481 16.25Q483.85 10.60 489.55 6.45L491.75 9.45L491.70 9.45ZM497.90 46.25L522.10 46.25L522.10 49.75L497.90 49.75L497.90 46.25ZM558.10 6.55L561.95 6.55L561.95 49.75L558.10 49.75L558.10 6.55ZM597.90 46.25L622.10 46.25L622.10 49.75L597.90 49.75L597.90 46.25ZM622.90 46.25L647.10 46.25L647.10 49.75L622.90 49.75L622.90 46.25ZM653.25 46.85Q657.90 43.25 660.38 38.55Q662.85 33.85 662.85 28.30Q662.85 25.50 662.27 23Q661.70 20.50 660.50 18.20Q659.30 15.90 657.48 13.75Q655.65 11.60 653.15 9.45L655.40 6.45Q661.15 10.70 663.98 16.32Q666.80 21.95 666.80 28.20Q666.80 31.30 666.08 34.30Q665.35 37.30 663.92 40.08Q662.50 42.85 660.38 45.33Q658.25 47.80 655.40 49.85L653.20 46.85L653.25 46.85ZM708.10 6.55L711.95 6.55L711.95 49.75L708.10 49.75L708.10 6.55ZM766.70 9.45Q762.05 13.05 759.60 17.75Q757.15 22.45 757.15 28Q757.15 30.80 757.73 33.30Q758.30 35.80 759.48 38.10Q760.65 40.40 762.48 42.55Q764.30 44.70 766.80 46.85L764.55 49.85Q758.80 45.60 755.98 39.98Q753.15 34.35 753.15 28.10Q753.15 21.90 756 16.25Q758.85 10.60 764.55 6.45L766.75 9.45L766.70 9.45ZM772.90 46.25L797.10 46.25L797.10 49.75L772.90 49.75L772.90 46.25ZM803.25 46.85Q807.90 43.25 810.38 38.55Q812.85 33.85 812.85 28.30Q812.85 25.50 812.27 23Q811.70 20.50 810.50 18.20Q809.30 15.90 807.48 13.75Q805.65 11.60 803.15 9.45L805.40 6.45Q811.15 10.70 813.98 16.32Q816.80 21.95 816.80 28.20Q816.80 31.30 816.08 34.30Q815.35 37.30 813.92 40.08Q812.50 42.85 810.38 45.33Q808.25 47.80 805.40 49.85L803.20 46.85L803.25 46.85ZM858.10 6.55L861.95 6.55L861.95 49.75L858.10 49.75L858.10 6.55ZM937 50L933 50L933 0L937 0L937 50Z"/></g><g transform="translate(0, 159.12)"><path d="M12 50L8 50L8 0L12 0L12 50ZM91.70 9.45Q87.05 13.05 84.60 17.75Q82.15 22.45 82.15 28Q82.15 30.80 82.72 33.30Q83.30 35.80 84.47 38.10Q85.65 40.40 87.47 42.55Q89.30 44.70 91.80 46.85L89.55 49.85Q83.80 45.60 80.97 39.98Q78.15 34.35 78.15 28.10Q78.15 21.90 81 16.25Q83.85 10.60 89.55 6.45L91.75 9.45L91.70 9.45ZM97.90 46.25L122.10 46.25L122.10 49.75L97.90 49.75L97.90 46.25ZM122.90 46.25L147.10 46.25L147.10 49.75L122.90 49.75L122.90 46.25ZM147.90 46.25L172.10 46.25L172.10 49.75L147.90 49.75L147.90 46.25ZM172.90 46.25L197.10 46.25L197.10 49.75L172.90 49.75L172.90 46.25ZM205.20 49.75L200.95 49.75L214.90 6.55L219.05 6.55L205.20 49.75ZM241.70 9.45Q237.05 13.05 234.60 17.75Q232.15 22.45 232.15 28Q232.15 30.80 232.72 33.30Q233.30 35.80 234.47 38.10Q235.65 40.40 237.47 42.55Q239.30 44.70 241.80 46.85L239.55 49.85Q233.80 45.60 230.97 39.98Q228.15 34.35 228.15 28.10Q228.15 21.90 231 16.25Q233.85 10.60 239.55 6.45L241.75 9.45L241.70 9.45ZM247.90 46.25L272.10 46.25L272.10 49.75L247.90 49.75L247.90 46.25ZM278.25 46.85Q282.90 43.25 285.38 38.55Q287.85 33.85 287.85 28.30Q287.85 25.50 287.27 23Q286.70 20.50 285.50 18.20Q284.30 15.90 282.48 13.75Q280.65 11.60 278.15 9.45L280.40 6.45Q286.15 10.70 288.98 16.32Q291.80 21.95 291.80 28.20Q291.80 31.30 291.07 34.30Q290.35 37.30 288.93 40.08Q287.50 42.85 285.38 45.33Q283.25 47.80 280.40 49.85L278.20 46.85L278.25 46.85ZM341.70 9.45Q337.05 13.05 334.60 17.75Q332.15 22.45 332.15 28Q332.15 30.80 332.73 33.30Q333.30 35.80 334.48 38.10Q335.65 40.40 337.48 42.55Q339.30 44.70 341.80 46.85L339.55 49.85Q333.80 45.60 330.98 39.98Q328.15 34.35 328.15 28.10Q328.15 21.90 331 16.25Q333.85 10.60 339.55 6.45L341.75 9.45L341.70 9.45ZM347.90 46.25L372.10 46.25L372.10 49.75L347.90 49.75L347.90 46.25ZM378.25 46.85Q382.90 43.25 385.38 38.55Q387.85 33.85 387.85 28.30Q387.85 25.50 387.27 23Q386.70 20.50 385.50 18.20Q384.30 15.90 382.48 13.75Q380.65 11.60 378.15 9.45L380.40 6.45Q386.15 10.70 388.98 16.32Q391.80 21.95 391.80 28.20Q391.80 31.30 391.07 34.30Q390.35 37.30 388.93 40.08Q387.50 42.85 385.38 45.33Q383.25 47.80 380.40 49.85L378.20 46.85L378.25 46.85ZM416.70 9.45Q412.05 13.05 409.60 17.75Q407.15 22.45 407.15 28Q407.15 30.80 407.73 33.30Q408.30 35.80 409.48 38.10Q410.65 40.40 412.48 42.55Q414.30 44.70 416.80 46.85L414.55 49.85Q408.80 45.60 405.98 39.98Q403.15 34.35 403.15 28.10Q403.15 21.90 406 16.25Q408.85 10.60 414.55 6.45L416.75 9.45L416.70 9.45ZM422.90 46.25L447.10 46.25L447.10 49.75L422.90 49.75L422.90 46.25ZM447.90 46.25L472.10 46.25L472.10 49.75L447.90 49.75L447.90 46.25ZM472.90 46.25L497.10 46.25L497.10 49.75L472.90 49.75L472.90 46.25ZM497.90 46.25L522.10 46.25L522.10 49.75L497.90 49.75L497.90 46.25ZM528.25 46.85Q532.90 43.25 535.38 38.55Q537.85 33.85 537.85 28.30Q537.85 25.50 537.27 23Q536.70 20.50 535.50 18.20Q534.30 15.90 532.48 13.75Q530.65 11.60 528.15 9.45L530.40 6.45Q536.15 10.70 538.98 16.32Q541.80 21.95 541.80 28.20Q541.80 31.30 541.08 34.30Q540.35 37.30 538.92 40.08Q537.50 42.85 535.38 45.33Q533.25 47.80 530.40 49.85L528.20 46.85L528.25 46.85ZM566.70 9.45Q562.05 13.05 559.60 17.75Q557.15 22.45 557.15 28Q557.15 30.80 557.73 33.30Q558.30 35.80 559.48 38.10Q560.65 40.40 562.48 42.55Q564.30 44.70 566.80 46.85L564.55 49.85Q558.80 45.60 555.98 39.98Q553.15 34.35 553.15 28.10Q553.15 21.90 556 16.25Q558.85 10.60 564.55 6.45L566.75 9.45L566.70 9.45ZM572.90 46.25L597.10 46.25L597.10 49.75L572.90 49.75L572.90 46.25ZM603.25 46.85Q607.90 43.25 610.38 38.55Q612.85 33.85 612.85 28.30Q612.85 25.50 612.27 23Q611.70 20.50 610.50 18.20Q609.30 15.90 607.48 13.75Q605.65 11.60 603.15 9.45L605.40 6.45Q611.15 10.70 613.98 16.32Q616.80 21.95 616.80 28.20Q616.80 31.30 616.08 34.30Q615.35 37.30 613.92 40.08Q612.50 42.85 610.38 45.33Q608.25 47.80 605.40 49.85L603.20 46.85L603.25 46.85ZM716.70 9.45Q712.05 13.05 709.60 17.75Q707.15 22.45 707.15 28Q707.15 30.80 707.73 33.30Q708.30 35.80 709.48 38.10Q710.65 40.40 712.48 42.55Q714.30 44.70 716.80 46.85L714.55 49.85Q708.80 45.60 705.98 39.98Q703.15 34.35 703.15 28.10Q703.15 21.90 706 16.25Q708.85 10.60 714.55 6.45L716.75 9.45L716.70 9.45ZM722.90 46.25L747.10 46.25L747.10 49.75L722.90 49.75L722.90 46.25ZM747.90 46.25L772.10 46.25L772.10 49.75L747.90 49.75L747.90 46.25ZM772.90 46.25L797.10 46.25L797.10 49.75L772.90 49.75L772.90 46.25ZM797.90 46.25L822.10 46.25L822.10 49.75L797.90 49.75L797.90 46.25ZM822.90 46.25L847.10 46.25L847.10 49.75L822.90 49.75L822.90 46.25ZM853.25 46.85Q857.90 43.25 860.38 38.55Q862.85 33.85 862.85 28.30Q862.85 25.50 862.27 23Q861.70 20.50 860.50 18.20Q859.30 15.90 857.48 13.75Q855.65 11.60 853.15 9.45L855.40 6.45Q861.15 10.70 863.98 16.32Q866.80 21.95 866.80 28.20Q866.80 31.30 866.08 34.30Q865.35 37.30 863.92 40.08Q862.50 42.85 860.38 45.33Q858.25 47.80 855.40 49.85L853.20 46.85L853.25 46.85ZM937 50L933 50L933 0L937 0L937 50Z"/></g><g transform="translate(0, 198.9)"><path d="M12 50L8 50L8 0L12 0L12 50ZM937 50L933 50L933 0L937 0L937 50Z"/></g><g transform="translate(0, 238.68)"><path d="M8 0L12 0L12 23L22.50 23L22.50 27L8 27L8 0ZM22.50 27L22.50 23L47.50 23L47.50 27L22.50 27ZM47.50 27L47.50 23L72.50 23L72.50 27L47.50 27ZM72.50 27L72.50 23L97.50 23L97.50 27L72.50 27ZM97.50 27L97.50 23L122.50 23L122.50 27L97.50 27ZM122.50 27L122.50 23L147.50 23L147.50 27L122.50 27ZM147.50 27L147.50 23L172.50 23L172.50 27L147.50 27ZM172.50 27L172.50 23L197.50 23L197.50 27L172.50 27ZM197.50 27L197.50 23L222.50 23L222.50 27L197.50 27ZM222.50 27L222.50 23L247.50 23L247.50 27L222.50 27ZM247.50 27L247.50 23L272.50 23L272.50 27L247.50 27ZM272.50 27L272.50 23L297.50 23L297.50 27L272.50 27ZM297.50 27L297.50 23L322.50 23L322.50 27L297.50 27ZM322.50 27L322.50 23L347.50 23L347.50 27L322.50 27ZM347.50 27L347.50 23L372.50 23L372.50 27L347.50 27ZM372.50 27L372.50 23L397.50 23L397.50 27L372.50 27ZM397.50 27L397.50 23L422.50 23L422.50 27L397.50 27ZM422.50 27L422.50 23L447.50 23L447.50 27L422.50 27ZM447.50 27L447.50 23L472.50 23L472.50 27L447.50 27ZM472.50 27L472.50 23L497.50 23L497.50 27L472.50 27ZM497.50 27L497.50 23L522.50 23L522.50 27L497.50 27ZM522.50 27L522.50 23L547.50 23L547.50 27L522.50 27ZM547.50 27L547.50 23L572.50 23L572.50 27L547.50 27ZM572.50 27L572.50 23L597.50 23L597.50 27L572.50 27ZM597.50 27L597.50 23L622.50 23L622.50 27L597.50 27ZM622.50 27L622.50 23L647.50 23L647.50 27L622.50 27ZM647.50 27L647.50 23L672.50 23L672.50 27L647.50 27ZM672.50 27L672.50 23L697.50 23L697.50 27L672.50 27ZM697.50 27L697.50 23L722.50 23L722.50 27L697.50 27ZM722.50 27L722.50 23L747.50 23L747.50 27L722.50 27ZM747.50 27L747.50 23L772.50 23L772.50 27L747.50 27ZM772.50 27L772.50 23L797.50 23L797.50 27L772.50 27ZM797.50 27L797.50 23L822.50 23L822.50 27L797.50 27ZM822.50 27L822.50 23L847.50 23L847.50 27L822.50 27ZM847.50 27L847.50 23L872.50 23L872.50 27L847.50 27ZM872.50 27L872.50 23L897.50 23L897.50 27L872.50 27ZM897.50 27L897.50 23L922.50 23L922.50 27L897.50 27ZM922.50 23L933 23L933 0L937 0L937 27L922.50 27L922.50 23Z"/></g></g></svg>